<svg preserveAspectRatio="none" width="100%" height="100%" overflow="visible" style="display: block;" viewBox="0 0 23.625 23.6269" fill="none" xmlns="http://www.w3.org/2000/svg">
<g id="filled outline">
<path id="Vector" d="M23.0625 6.0018C22.5845 6.01528 22.115 6.13145 21.6859 6.34244C20.76 6.80542 20.25 7.6833 20.25 8.8143V11.5813L19.3479 12.4833C19.1698 11.3059 18.1685 10.6256 18.1245 10.5962C18.0163 10.5241 17.8865 10.4917 17.7571 10.5045C17.6277 10.5174 17.5067 10.5746 17.4148 10.6666L12.9148 15.1666C12.8093 15.272 12.75 15.4151 12.75 15.5643V23.0643C12.75 23.2135 12.8093 23.3566 12.9148 23.462C13.0202 23.5675 13.1633 23.6268 13.3125 23.6268C13.4617 23.6268 13.6048 23.5675 13.7102 23.462C13.8157 23.3566 13.875 23.2135 13.875 23.0643V15.7973L17.8322 11.8401C18.0146 12.0487 18.2102 12.3532 18.2447 12.7243C18.2932 13.2481 18.014 13.8174 17.415 14.4165L15.165 16.6665C15.0609 16.7723 15.0029 16.9149 15.0035 17.0633C15.0041 17.2117 15.0633 17.3538 15.1682 17.4588C15.2732 17.5637 15.4153 17.6229 15.5637 17.6235C15.7121 17.6241 15.8547 17.5661 15.9605 17.462L18.2105 15.212L21.2105 12.212C21.3159 12.1065 21.375 11.9634 21.375 11.8143V8.8143C21.375 8.11422 21.6319 7.63956 22.1605 7.36323C22.2692 7.30691 22.3828 7.26071 22.5 7.22523V13.1104L18.8804 17.454C18.7961 17.5551 18.7499 17.6826 18.75 17.8143V23.0643C18.75 23.2135 18.8093 23.3566 18.9148 23.462C19.0202 23.5675 19.1633 23.6268 19.3125 23.6268C19.4617 23.6268 19.6048 23.5675 19.7102 23.462C19.8157 23.3566 19.875 23.2135 19.875 23.0643V18.018L23.4946 13.6744C23.5789 13.5733 23.625 13.4459 23.625 13.3143V6.5643C23.625 6.41511 23.5657 6.27204 23.4602 6.16655C23.3548 6.06106 23.2117 6.0018 23.0625 6.0018V6.0018Z" fill="var(--fill-0, #161722)"/>
<path id="Vector_2" d="M6.21023 10.6666C6.11829 10.5746 5.99733 10.5174 5.86794 10.5045C5.73854 10.4917 5.6087 10.5241 5.5005 10.5962C5.45653 10.6256 4.45519 11.3059 4.27706 12.4833L3.375 11.5813V8.8143C3.375 7.6833 2.86505 6.80542 1.93908 6.34244C1.50997 6.13145 1.04048 6.01528 0.5625 6.0018C0.413316 6.0018 0.270242 6.06106 0.164752 6.16655C0.0592632 6.27204 0 6.41511 0 6.5643V13.3143C-2.2017e-06 13.4459 0.046126 13.5733 0.130359 13.6744L3.75 18.018V23.0643C3.75 23.2135 3.80926 23.3566 3.91475 23.462C4.02024 23.5675 4.16332 23.6268 4.3125 23.6268C4.46168 23.6268 4.60476 23.5675 4.71025 23.462C4.81574 23.3566 4.875 23.2135 4.875 23.0643V17.8143C4.875 17.6827 4.82887 17.5553 4.74464 17.4542L1.125 13.1106V7.22566C1.23188 7.25794 1.33588 7.29908 1.43592 7.34866C1.9837 7.62255 2.25 8.1018 2.25 8.8143V11.8143C2.25001 11.9635 2.30927 12.1065 2.41477 12.212L5.41477 15.212L7.66477 17.462C7.77054 17.5661 7.91316 17.6242 8.06155 17.6236C8.20994 17.6229 8.35208 17.5637 8.45701 17.4588C8.56194 17.3539 8.62115 17.2117 8.62176 17.0633C8.62236 16.915 8.5643 16.7723 8.46023 16.6666L6.21023 14.4166C5.61113 13.8174 5.33194 13.2481 5.38055 12.7244C5.41491 12.353 5.6107 12.0484 5.79305 11.84L9.75 15.7973V23.0643C9.75 23.2135 9.80926 23.3566 9.91475 23.462C10.0202 23.5675 10.1633 23.6268 10.3125 23.6268C10.4617 23.6268 10.6048 23.5675 10.7102 23.462C10.8157 23.3566 10.875 23.2135 10.875 23.0643V15.5643C10.875 15.4151 10.8157 15.272 10.7102 15.1666L6.21023 10.6666Z" fill="var(--fill-0, #161722)"/>
<path id="Vector_3" d="M8.8125 4.8768H10.125V10.3143C10.125 10.4635 10.1843 10.6066 10.2898 10.712C10.3952 10.8175 10.5383 10.8768 10.6875 10.8768H12.9375C13.0867 10.8768 13.2298 10.8175 13.3352 10.712C13.4407 10.6066 13.5 10.4635 13.5 10.3143V4.8768H14.8125C14.9617 4.8768 15.1048 4.81754 15.2102 4.71205C15.3157 4.60656 15.375 4.46349 15.375 4.3143V2.8143C15.375 2.66512 15.3157 2.52204 15.2102 2.41655C15.1048 2.31106 14.9617 2.2518 14.8125 2.2518H13.5V0.564301C13.5 0.415117 13.4407 0.272043 13.3352 0.166554C13.2298 0.0610646 13.0867 0.00180136 12.9375 0.00180136H10.6875C10.5383 0.00180136 10.3952 0.0610646 10.2898 0.166554C10.1843 0.272043 10.125 0.415117 10.125 0.564301V2.2518H8.8125C8.66332 2.2518 8.52024 2.31106 8.41475 2.41655C8.30926 2.52204 8.25 2.66512 8.25 2.8143V4.3143C8.25 4.46349 8.30926 4.60656 8.41475 4.71205C8.52024 4.81754 8.66332 4.8768 8.8125 4.8768ZM9.375 3.3768H10.6875C10.8367 3.3768 10.9798 3.31754 11.0852 3.21205C11.1907 3.10656 11.25 2.96349 11.25 2.8143V1.1268H12.375V2.8143C12.375 2.96349 12.4343 3.10656 12.5398 3.21205C12.6452 3.31754 12.7883 3.3768 12.9375 3.3768H14.25V3.7518H12.9375C12.7883 3.7518 12.6452 3.81106 12.5398 3.91655C12.4343 4.02204 12.375 4.16512 12.375 4.3143V9.7518H11.25V4.3143C11.25 4.16512 11.1907 4.02204 11.0852 3.91655C10.9798 3.81106 10.8367 3.7518 10.6875 3.7518H9.375V3.3768Z" fill="var(--fill-0, #161722)"/>
<path id="Vector_4" d="M17.25 3.5643C17.25 3.71349 17.3093 3.85656 17.4148 3.96205C17.5202 4.06754 17.6633 4.1268 17.8125 4.1268H18.5625C18.7117 4.1268 18.8548 4.06754 18.9602 3.96205C19.0657 3.85656 19.125 3.71349 19.125 3.5643C19.125 3.41512 19.0657 3.27204 18.9602 3.16656C18.8548 3.06107 18.7117 3.0018 18.5625 3.0018H17.8125C17.6633 3.0018 17.5202 3.06107 17.4148 3.16656C17.3093 3.27204 17.25 3.41512 17.25 3.5643Z" fill="var(--fill-0, #161722)"/>
<path id="Vector_5" d="M17.1097 1.50187C17.2083 1.50193 17.3052 1.47593 17.3906 1.42649L18.0401 1.05149C18.1046 1.01483 18.1612 0.965767 18.2067 0.907138C18.2521 0.84851 18.2855 0.781471 18.305 0.70988C18.3244 0.638289 18.3295 0.563561 18.3199 0.489997C18.3103 0.416433 18.2863 0.345487 18.2492 0.281244C18.2121 0.217 18.1627 0.160728 18.1038 0.115667C18.0449 0.0706061 17.9776 0.0376462 17.9059 0.0186851C17.8342 -0.000276115 17.7594 -0.00486406 17.6859 0.00518542C17.6124 0.0152349 17.5416 0.0397233 17.4776 0.0772407L16.8281 0.452241C16.7209 0.514169 16.6371 0.60976 16.5897 0.724185C16.5423 0.83861 16.534 0.965472 16.5661 1.08509C16.5982 1.20471 16.6688 1.31039 16.7671 1.38575C16.8654 1.46111 16.9858 1.50192 17.1097 1.50187Z" fill="var(--fill-0, #161722)"/>
<path id="Vector_6" d="M16.8281 6.67649L17.4776 7.05149C17.6067 7.12491 17.7597 7.14427 17.903 7.10535C18.0464 7.06643 18.1685 6.97239 18.2428 6.84376C18.317 6.71512 18.3374 6.56233 18.2994 6.41872C18.2615 6.27512 18.1682 6.15236 18.0401 6.07724L17.3906 5.70224C17.3266 5.66472 17.2558 5.64023 17.1823 5.63019C17.1088 5.62014 17.0341 5.62472 16.9623 5.64368C16.8906 5.66265 16.8234 5.69561 16.7644 5.74067C16.7055 5.78573 16.6561 5.842 16.619 5.90624C16.5819 5.97049 16.5579 6.04143 16.5483 6.115C16.5388 6.18856 16.5438 6.26329 16.5633 6.33488C16.5827 6.40647 16.6161 6.47351 16.6616 6.53214C16.707 6.59077 16.7636 6.63983 16.8281 6.67649Z" fill="var(--fill-0, #161722)"/>
<path id="Vector_7" d="M5.0625 4.1268H5.8125C5.96168 4.1268 6.10476 4.06754 6.21025 3.96205C6.31574 3.85656 6.375 3.71349 6.375 3.5643C6.375 3.41512 6.31574 3.27204 6.21025 3.16656C6.10476 3.06107 5.96168 3.0018 5.8125 3.0018H5.0625C4.91332 3.0018 4.77024 3.06107 4.66475 3.16656C4.55926 3.27204 4.5 3.41512 4.5 3.5643C4.5 3.71349 4.55926 3.85656 4.66475 3.96205C4.77024 4.06754 4.91332 4.1268 5.0625 4.1268V4.1268Z" fill="var(--fill-0, #161722)"/>
<path id="Vector_8" d="M5.58511 1.05149L6.23461 1.42649C6.2986 1.464 6.36939 1.48849 6.44289 1.49854C6.51639 1.50859 6.59115 1.504 6.66286 1.48504C6.73458 1.46608 6.80184 1.43312 6.86077 1.38806C6.9197 1.343 6.96913 1.28673 7.00622 1.22248C7.04332 1.15824 7.06733 1.08729 7.0769 1.01373C7.08646 0.940167 7.08137 0.865438 7.06194 0.793847C7.0425 0.722256 7.0091 0.655217 6.96364 0.596589C6.91819 0.53796 6.8616 0.488902 6.79711 0.452236L6.14761 0.0772363C6.01848 0.00382062 5.86556 -0.0155406 5.72221 0.0233777C5.57886 0.0622959 5.45672 0.156334 5.38245 0.284971C5.30818 0.413608 5.28781 0.566399 5.32577 0.710003C5.36374 0.853607 5.45697 0.976364 5.58511 1.05149V1.05149Z" fill="var(--fill-0, #161722)"/>
<path id="Vector_9" d="M6.23459 5.70224L5.58509 6.07724C5.5206 6.11391 5.464 6.16297 5.41855 6.22159C5.3731 6.28022 5.33969 6.34726 5.32026 6.41885C5.30082 6.49044 5.29574 6.56517 5.3053 6.63874C5.31486 6.7123 5.33888 6.78324 5.37597 6.84749C5.41306 6.91173 5.46249 6.968 5.52142 7.01307C5.58035 7.05813 5.64761 7.09109 5.71933 7.11005C5.79105 7.12901 5.86581 7.1336 5.93931 7.12355C6.01281 7.1135 6.08359 7.08901 6.14759 7.05149L6.79709 6.67649C6.86157 6.63983 6.91817 6.59077 6.96362 6.53214C7.00907 6.47351 7.04248 6.40647 7.06192 6.33488C7.08135 6.26329 7.08644 6.18856 7.07687 6.115C7.06731 6.04143 7.04329 5.97049 7.0062 5.90624C6.96911 5.842 6.91968 5.78573 6.86075 5.74067C6.80182 5.69561 6.73456 5.66265 6.66284 5.64368C6.59112 5.62472 6.51636 5.62014 6.44287 5.63019C6.36937 5.64023 6.29858 5.66472 6.23459 5.70224Z" fill="var(--fill-0, #161722)"/>
</g>
</svg>
