<svg preserveAspectRatio="none" width="100%" height="100%" overflow="visible" style="display: block;" viewBox="0 0 48 48" fill="none" xmlns="http://www.w3.org/2000/svg">
<g id="Icon">
<circle id="Shape" cx="24" cy="24" r="24" fill="var(--fill-0, #FFD2A4)"/>
<g id="Icon_2" clip-path="url(#clip0_0_99)">
<path id="Vector" d="M30.7796 13.0002C28.9476 13.0002 27.8474 14.1754 27.2471 15.1608C26.6469 14.1754 25.5466 13.0002 23.7147 13.0002C21.2848 13.0002 19.5377 15.021 19.5377 17.4792C19.5377 20.1475 21.6079 21.8759 24.7414 24.4921C26.6467 26.0828 26.8059 26.2438 27.2471 26.621C27.7261 26.2237 27.8708 26.0186 30.0363 24.353C32.3424 22.5793 34.9995 20.4052 34.9995 17.4792C34.9995 15.0505 33.2353 13.0002 30.7796 13.0002V13.0002ZM29.2504 23.3313C28.6396 23.8011 27.9606 24.3234 27.2494 24.9195C26.6618 24.4163 26.1072 23.9532 25.5675 23.5027C22.6112 21.0344 20.8267 19.5445 20.8267 17.4792C20.8267 15.6606 22.0683 14.2892 23.7147 14.2892C25.4979 14.2892 26.3041 15.9784 26.568 16.7047L26.7222 17.1251H27.772L27.9262 16.7047C28.1901 15.9785 28.9963 14.2892 30.7795 14.2892C32.4504 14.2892 33.7104 15.6606 33.7104 17.4792C33.7104 19.8981 31.1455 21.8737 29.2504 23.3313Z" fill="var(--fill-0, #161722)"/>
<path id="Vector_2" d="M24.7005 34.9105C25.0555 34.9697 25.418 34.9997 25.7778 34.9997C27.3281 34.9997 28.8328 34.4476 30.0153 33.4453L34.2807 29.8758C35.1217 29.1947 35.2434 27.959 34.5498 27.1268C33.8726 26.3143 32.6912 26.1903 31.86 26.8445L29.0945 29.0979C28.9073 29.2537 28.7038 29.3869 28.4887 29.4957C28.5036 29.399 28.5114 29.2999 28.5114 29.1991C28.5114 28.1329 27.644 27.2655 26.5778 27.2655H22.9777C22.5344 26.8488 21.449 25.9765 20.1327 25.9765C18.814 25.9765 17.6999 26.8543 17.2503 27.2655H13V33.7107H17.4586L24.7005 34.9105ZM15.5781 32.4216H14.289V28.5545H15.5781V32.4216ZM16.8671 28.5545H17.7926C18.4086 27.908 19.2376 27.2655 20.1326 27.2655C21.0234 27.2655 21.8213 27.8971 22.4227 28.5545H26.5778C26.9332 28.5545 27.2223 28.8436 27.2223 29.199C27.2223 29.5544 26.9332 29.8435 26.5778 29.8435H23.3552V31.1326H27.0329C28.084 31.1326 29.1079 30.7626 29.9163 30.0909L32.6609 27.8545C32.9394 27.6382 33.3334 27.6807 33.5595 27.952C33.7927 28.2318 33.7512 28.6475 33.4674 28.8756L29.1833 32.4606C28.2332 33.2667 27.0237 33.7106 25.7778 33.7106C25.4887 33.7106 25.1976 33.6865 24.9117 33.6389L17.5646 32.4216H16.8671V28.5545Z" fill="var(--fill-0, #161722)"/>
</g>
</g>
<defs>
<clipPath id="clip0_0_99">
<rect width="22" height="22" fill="white" transform="translate(13 13)"/>
</clipPath>
</defs>
</svg>
